<svg width="348" height="213" viewBox="0 0 348 213" fill="none" xmlns="http://www.w3.org/2000/svg">
<path fill-rule="evenodd" clip-rule="evenodd" d="M288 20.9647C288 8.96798 277.512 -0.329623 265.602 1.10901L17.6016 31.065C7.55656 32.2784 0 40.8026 0 50.9207V117.77C0 126.486 7.94031 133.045 16.5 131.399C25.0597 129.754 33 136.313 33 145.029V192.859C33 204.909 43.5768 214.223 55.5299 212.699L330.53 177.631C340.517 176.358 348 167.859 348 157.792V96.9769C348 85.0884 337.691 75.8246 325.87 77.0906L304.597 79.3689C295.732 80.3183 288 73.3705 288 64.4542V20.9647ZM239.547 146.442C236.373 146.834 234.436 145.107 234.461 141.991L234.559 129.888C234.568 128.783 235.464 127.778 236.56 127.643L243.251 126.817C244.347 126.681 245.243 125.676 245.252 124.572L245.315 116.764C245.324 115.659 244.443 114.874 243.346 115.009L236.33 115.875C235.233 116.01 234.352 115.225 234.361 114.12L234.432 105.247C234.441 104.142 233.56 103.356 232.464 103.492L232.132 103.533C231.585 103.6 231.06 103.892 230.682 104.34L213.572 124.585L213.605 120.515C213.614 119.41 212.732 118.624 211.636 118.76L209.552 119.017C205.506 119.517 202.336 120.798 199.66 123.215C198.527 124.238 196.784 124.228 196.174 123.01L195.679 122.022C195.353 121.372 194.662 121.019 193.9 121.113L186.958 121.97C185.862 122.106 184.966 123.111 184.957 124.215L184.632 164.494C184.623 165.598 185.504 166.384 186.601 166.249L197.768 164.87C198.864 164.735 199.76 163.73 199.769 162.625L199.934 142.158C199.98 136.5 202.278 133.841 207.567 133.188L211.523 132.699C212.609 132.565 213.498 131.578 213.524 130.486L217.453 130.001C218.549 129.866 219.431 130.652 219.422 131.756L219.303 146.402C219.224 156.241 225.117 161.494 234.801 160.298L243.233 159.257C244.329 159.122 245.225 158.117 245.234 157.012L245.309 147.729C245.318 146.624 244.437 145.838 243.34 145.974L239.547 146.442ZM118.952 156.251C118.927 159.367 120.865 161.094 124.038 160.702L127.832 160.234C128.928 160.098 129.809 160.884 129.8 161.989L129.726 171.272C129.717 172.377 128.821 173.382 127.725 173.517L119.293 174.558C109.608 175.754 103.715 170.501 103.795 160.662L103.913 146.016C103.922 144.912 103.04 144.126 101.944 144.261L97.8572 144.766C97.44 144.817 97.0539 144.735 96.7362 144.553L96.7422 144.595C96.8977 145.682 95.981 146.718 94.8705 146.855L84.6353 148.118C83.539 148.254 82.7345 147.408 82.2746 146.467C81.6034 145.093 80.0838 144.584 78.126 144.826C75.6845 145.128 74.047 146.558 74.0304 148.608C74.0106 151.068 77.342 151.312 81.4865 151.538L81.7436 151.551C88.6985 151.914 97.6586 152.381 97.5697 163.396C97.495 172.662 89.7147 179.684 77.9957 181.131C66.8976 182.501 59.9061 177.865 58.8848 169.544C58.7509 168.453 59.6654 167.42 60.7749 167.283L71.3382 165.979C72.4345 165.844 73.2545 166.672 73.6405 167.654C74.3573 169.477 76.2109 170.129 78.4119 169.857C80.6092 169.586 82.7344 168.177 82.7529 165.881C82.7734 163.339 79.4427 163.013 75.2161 162.879C68.3893 162.575 59.3724 161.64 59.459 150.899C59.5305 142.043 67.1454 135.369 78.3761 133.982C87.2547 132.886 93.6771 135.886 95.9707 141.656C96.0584 141.334 96.2204 141.025 96.4459 140.759L115.173 118.6C115.551 118.152 116.076 117.86 116.623 117.792L116.955 117.752C118.051 117.616 118.933 118.402 118.924 119.506L118.852 128.38C118.843 129.485 119.725 130.27 120.821 130.135L127.838 129.269C128.934 129.133 129.815 129.919 129.806 131.024L129.743 138.831C129.735 139.936 128.839 140.941 127.742 141.076L121.051 141.902C119.955 142.038 119.059 143.043 119.05 144.147L118.952 156.251ZM169.409 124.137C168.659 124.229 167.975 124.756 167.66 125.482C167.13 126.708 165.647 127.226 164.587 126.669C161.367 124.977 157.487 124.298 153.213 124.825C139.785 126.483 130.103 137.426 129.993 151.12C129.882 164.895 139.406 173.55 152.834 171.892C157.131 171.361 161.038 169.728 164.312 167.214C165.259 166.488 166.563 166.651 166.989 167.637C167.246 168.231 167.851 168.563 168.526 168.48L177.147 167.416C178.243 167.281 179.139 166.275 179.148 165.171L179.473 124.892C179.482 123.788 178.601 123.002 177.504 123.137L169.409 124.137ZM154.977 158.193C149.28 158.896 145.164 155.063 145.211 149.241C145.258 143.501 149.443 138.725 155.139 138.022C160.836 137.319 164.952 141.07 164.906 146.81C164.859 152.632 160.673 157.49 154.977 158.193ZM269.536 110.383C283.697 108.635 293.381 117.597 293.276 130.553C293.27 131.345 293.237 132.115 293.178 132.892C293.101 133.912 292.241 134.776 291.234 134.9L262.771 138.414C261.523 138.568 260.558 139.846 261.011 140.956C262.392 144.338 265.25 145.808 269.255 145.314C272.28 144.94 274.95 143.448 276.525 141.244C276.982 140.606 277.641 140.101 278.376 140.01L289.629 138.621C290.965 138.456 291.908 139.646 291.363 140.946C287.567 149.999 279.188 156.293 269.156 157.532C255.402 159.229 245.392 150.39 245.502 136.86C245.611 123.33 255.702 112.091 269.536 110.383ZM277.405 125.711C275.799 123.071 273.063 121.907 269.44 122.355C265.936 122.787 263.248 124.629 261.666 127.678C261.023 128.915 261.976 130.075 263.289 129.913L275.76 128.373C277.087 128.21 278.06 126.786 277.405 125.711ZM320.848 105.277C316.802 105.777 313.633 107.058 310.956 109.475C309.823 110.499 308.081 110.488 307.47 109.27L306.975 108.282C306.649 107.632 305.958 107.279 305.197 107.373L298.254 108.23C297.158 108.366 296.262 109.371 296.253 110.475L295.928 150.754C295.919 151.859 296.801 152.644 297.897 152.509L309.064 151.13C310.161 150.995 311.057 149.99 311.065 148.885L311.231 128.418C311.276 122.76 313.574 120.101 318.864 119.448L322.82 118.959C323.916 118.824 324.812 117.819 324.821 116.714L324.901 106.775C324.91 105.67 324.029 104.885 322.932 105.02L320.848 105.277ZM237.658 36.067C251.796 34.1456 261.456 42.9881 261.34 55.9436C261.333 56.7365 261.3 57.5065 261.241 58.2837C261.163 59.3048 260.303 60.1795 259.298 60.3161L230.88 64.1781C229.634 64.3474 228.669 65.6368 229.121 66.7413C230.497 70.1054 233.348 71.5409 237.347 70.9976C240.367 70.5871 243.033 69.0619 244.608 66.8395C245.065 66.1953 245.724 65.6824 246.457 65.5827L257.692 64.0559C259.026 63.8745 259.967 65.0525 259.421 66.359C255.624 75.4583 247.254 81.8539 237.238 83.2151C223.506 85.0812 213.52 76.3649 213.641 62.8354C213.762 49.306 223.845 37.9441 237.658 36.067ZM245.501 51.2965C243.9 48.6767 241.169 47.5469 237.551 48.0385C234.053 48.5138 231.368 50.3882 229.786 53.4563C229.144 54.7009 230.093 55.8495 231.404 55.6714L243.856 53.9792C245.18 53.7992 246.153 52.3639 245.501 51.2965ZM195.775 41.9227C191.294 42.5316 187.184 44.7545 184.083 48.0022C183.088 49.0445 181.472 49.2002 180.542 48.3687C177.824 45.939 174.062 44.8735 169.692 45.4673C165.747 46.0035 162.038 47.9143 159.076 50.7366C157.934 51.8249 156.127 51.8001 155.549 50.5288L155.241 49.8517C154.931 49.1694 154.224 48.7979 153.438 48.9047L146.068 49.9063C144.974 50.055 144.079 51.071 144.069 52.1755L143.71 92.4539C143.7 93.5584 144.579 94.3332 145.674 94.1845L156.823 92.6693C157.918 92.5205 158.813 91.5046 158.823 90.4L159.021 68.1289C159.07 62.6351 161.372 59.3741 165.434 58.822C168.603 58.3913 170.288 60.5373 170.248 65.0471L170.036 88.8762C170.026 89.9807 170.905 90.7555 172 90.6068L182.743 89.1468C183.837 88.998 184.733 87.9821 184.742 86.8775L184.941 64.6064C184.991 59.0307 187.129 55.8737 191.273 55.3105C194.523 54.8688 196.128 56.8619 196.087 61.5357L195.874 85.3648C195.864 86.4693 196.743 87.2441 197.838 87.0953L208.988 85.5801C210.082 85.4314 210.977 84.4154 210.987 83.3109L211.216 57.5959C211.309 47.1823 205.2 40.6418 195.775 41.9227ZM57.4845 77.5373C57.4944 76.4327 58.3896 75.4168 59.4841 75.268L86.7218 71.5664C87.8163 71.4177 88.7008 72.1943 88.6389 73.3047C87.6453 91.1368 75.5901 105.183 58.4345 107.514C41.0464 109.877 28.2397 99.0057 28.3955 81.5404C28.5512 64.0751 41.34 49.643 58.8095 47.2689C72.8657 45.3587 84.4056 52.1155 87.6633 63.6948C87.989 64.8525 87.0396 66.118 85.8006 66.2864L73.0013 68.0258C72.2056 68.1339 71.5046 67.7411 71.12 67.0948C68.8357 63.2565 64.1221 61.2885 58.8403 62.0062C50.3088 63.1657 44.5655 70.1704 44.4836 79.354C44.4024 88.4557 49.9533 93.9255 58.5661 92.755C63.3377 92.1066 67.563 89.6756 70.0172 86.3653C70.9207 85.1466 70.0113 83.8289 68.6039 84.0201L59.3949 85.2716C58.3004 85.4204 57.4211 84.6455 57.431 83.541L57.4845 77.5373ZM126.8 53.6539C127.115 52.9237 127.798 52.3892 128.547 52.2874L136.63 51.189C137.724 51.0402 138.604 51.815 138.594 52.9196L138.234 93.198C138.225 94.3025 137.329 95.3185 136.235 95.4672L127.627 96.637C126.954 96.7285 126.35 96.4039 126.094 95.8132C125.67 94.8324 124.368 94.6848 123.422 95.423C120.151 97.9763 116.25 99.6574 111.959 100.24C98.552 102.062 89.0519 93.5258 89.1747 79.7504C89.2968 66.0569 98.9717 54.9963 112.378 53.1744C116.645 52.5945 120.519 53.2259 123.732 54.8787C124.789 55.4224 126.27 54.8858 126.8 53.6539ZM104.369 77.6855C104.317 83.5073 108.422 87.2899 114.11 86.517C119.798 85.744 123.98 80.835 124.032 75.0133C124.083 69.2735 119.978 65.5728 114.29 66.3458C108.602 67.1187 104.42 71.9457 104.369 77.6855Z" fill="#040404"/>
</svg>
