<?xml version="1.0" ?><svg width="648" height="324" viewBox="0 0 648 324" fill="none" xmlns="http://www.w3.org/2000/svg">
<rect width="648" height="324" fill="black"/>
<g clip-path="url(#clip0_3178_2582)">
<path fill-rule="evenodd" clip-rule="evenodd" d="M531.332 168.601C531.332 162.987 528.026 158.76 522.806 158.76C517.587 158.76 514.276 162.987 514.276 168.601C514.276 174.214 517.587 178.441 522.806 178.441C528.036 178.451 531.332 174.225 531.332 168.601ZM531.076 154.993V140.286C531.076 139.315 531.727 138.472 532.666 138.227L540.467 136.145V185.911H531.812V181.685C529.636 184.854 525.729 186.711 520.84 186.711C510.799 186.711 504.918 178.654 504.918 168.611C504.918 158.568 510.799 150.511 520.84 150.511C525.718 150.5 529.295 152.613 531.076 154.993ZM477.832 151.29V155.516C479.421 152.538 482.988 150.489 488.14 150.489C496.467 150.489 500.893 156.039 500.893 164.299V185.911H491.514V165.367C491.514 161.332 489.796 158.558 485.633 158.558C481.075 158.558 478.568 161.461 478.568 166.092V185.911H469.188V151.29H477.832ZM447.255 186.711C437.148 186.711 431.524 182.347 431.524 171.119V151.29H440.905V171.247C440.905 176.071 443.082 178.312 447.244 178.312C451.406 178.312 453.584 176.06 453.584 171.247V151.29H462.965V171.108C462.986 182.347 457.362 186.711 447.255 186.711ZM400.552 168.601C400.552 174.812 404.384 178.441 409.336 178.441C414.288 178.441 418.119 174.801 418.119 168.601C418.119 162.4 414.288 158.76 409.336 158.76C404.394 158.76 400.552 162.389 400.552 168.601ZM409.346 186.711C398.247 186.711 391.171 178.451 391.171 168.611C391.171 158.771 398.236 150.511 409.346 150.511C420.446 150.511 427.522 158.771 427.522 168.611C427.511 178.451 420.446 186.711 409.346 186.711ZM362.58 168.601C362.58 174.214 365.888 178.441 371.107 178.441C376.326 178.441 379.634 174.214 379.634 168.601C379.634 162.987 376.326 158.76 371.107 158.76C365.888 158.76 362.58 162.987 362.58 168.601ZM362.846 182.218V196.615C362.846 197.587 362.195 198.43 361.256 198.675L353.465 200.725V151.29H362.121V155.516C364.298 152.346 368.204 150.489 373.092 150.489C383.135 150.489 389.015 158.547 389.015 168.59C389.015 178.633 383.135 186.69 373.092 186.69C368.193 186.711 364.629 184.598 362.846 182.218ZM325.599 166.22V185.911H316.218V165.367C316.218 161.535 314.831 158.558 310.669 158.558C306.304 158.558 303.924 161.397 303.924 166.028V185.922H294.543V151.29H303.198V155.516C304.788 152.538 308.225 150.489 313.177 150.489C317.873 150.489 321.235 152.336 323.22 155.377C326.261 152.005 329.762 150.489 334.714 150.489C343.038 150.489 347.265 156.242 347.265 164.299V185.911H337.884V165.367C337.884 161.535 336.496 158.558 332.334 158.558C327.905 158.558 325.599 161.397 325.599 166.22ZM263.24 168.601C263.24 174.812 267.072 178.441 272.024 178.441C276.976 178.441 280.807 174.801 280.807 168.601C280.807 162.4 276.976 158.76 272.024 158.76C267.072 158.76 263.24 162.389 263.24 168.601ZM272.024 186.711C260.924 186.711 253.849 178.451 253.849 168.611C253.849 158.771 260.914 150.511 272.024 150.511C283.134 150.511 290.199 158.771 290.199 168.611C290.199 178.451 283.123 186.711 272.024 186.711ZM205.171 162.389C205.171 147.725 215.278 138.002 228.758 138.002C240.455 138.002 249.708 144.94 251.49 156.37H241.18C239.793 150.489 235.033 147.181 228.758 147.181C220.166 147.181 215.342 153.125 215.342 162.378C215.342 171.631 220.166 177.576 228.758 177.576C235.033 177.576 239.793 174.267 241.18 168.387H251.49C249.708 179.817 240.455 186.754 228.758 186.754C215.278 186.775 205.171 177.063 205.171 162.389Z" fill="white"/>
<path fill-rule="evenodd" clip-rule="evenodd" d="M112.853 188.819C110.462 187.356 109 184.753 109 181.956V166.342C109 165.745 109.16 165.169 109.459 164.656C110.387 163.055 112.447 162.511 114.048 163.45L149.289 183.995C151.348 185.201 152.618 187.399 152.618 189.79V205.969C152.618 206.706 152.415 207.442 152.031 208.072C150.868 209.972 148.392 210.569 146.492 209.406L112.853 188.819ZM165.383 159.17C167.442 160.377 168.712 162.575 168.712 164.966V197.794C168.712 198.766 168.189 199.662 167.346 200.132L159.63 204.475C159.534 204.529 159.427 204.571 159.321 204.603V186.375C159.321 184.016 158.083 181.828 156.055 180.612L125.105 162.095V141.518C125.105 140.921 125.265 140.344 125.564 139.832C126.492 138.231 128.552 137.687 130.153 138.626L165.383 159.17ZM180.804 134.923C182.875 136.118 184.145 138.338 184.145 140.729V188.68C184.145 189.662 183.601 190.569 182.736 191.039L175.425 194.987V161.604C175.425 159.246 174.188 157.068 172.17 155.851L140.537 136.876V117.356C140.537 116.758 140.697 116.182 140.985 115.67C141.914 114.069 143.974 113.525 145.575 114.453L180.804 134.923Z" fill="#00D395"/>
</g>
<defs>
<clipPath id="clip0_3178_2582">
<rect width="430.222" height="96" fill="white" transform="translate(109 114)"/>
</clipPath>
</defs>
</svg>
